<?xml version="1.0" standalone="no"?>
<!DOCTYPE svg PUBLIC "-//W3C//DTD SVG 20010904//EN"
 "http://www.w3.org/TR/2001/REC-SVG-20010904/DTD/svg10.dtd">
<svg version="1.0" xmlns="http://www.w3.org/2000/svg"
 width="4562.000000pt" height="774.000000pt" viewBox="0 0 4562.000000 774.000000"
 preserveAspectRatio="xMidYMid meet">

<g transform="translate(0.000000,774.000000) scale(0.100000,-0.100000)"
fill="#000000" stroke="none">
<path d="M44510 7721 c-101 -11 -179 -35 -271 -82 -182 -95 -305 -240 -381
-449 l-23 -65 -3 -3103 c-3 -3486 -10 -3172 77 -3347 98 -199 264 -333 487
-397 72 -20 100 -22 319 -22 198 0 251 3 305 18 230 63 405 203 500 401 88
182 80 -140 80 3315 0 3441 7 3135 -75 3305 -78 162 -186 270 -350 351 -49 24
-124 51 -165 60 -87 18 -385 27 -500 15z m475 -106 c39 -8 108 -33 155 -57 68
-33 102 -59 170 -127 94 -94 145 -182 177 -301 17 -61 18 -240 18 -3135 0
-2899 -1 -3074 -18 -3135 -69 -256 -269 -444 -526 -496 -67 -13 -123 -15 -285
-12 -183 5 -208 7 -281 31 -180 59 -326 186 -404 352 -66 139 -61 -115 -59
3282 l3 3088 27 73 c84 230 260 387 493 437 87 19 439 19 530 0z"/>
<path d="M44370 6945 l0 -115 298 -2 297 -3 3 -23 c3 -19 -36 -48 -297 -220
l-301 -197 3 -105 2 -105 420 0 420 0 0 115 0 115 -279 5 c-194 3 -280 8 -283
16 -2 6 125 96 282 200 l285 188 0 123 0 123 -425 0 -425 0 0 -115z"/>
<path d="M44370 5865 l0 -115 290 0 291 0 -3 113 -3 112 -287 3 -288 2 0 -115z"/>
<path d="M45057 5973 c-4 -3 -7 -55 -7 -115 l0 -108 85 0 85 0 0 115 0 115
-78 0 c-43 0 -82 -3 -85 -7z"/>
<path d="M44370 5435 l0 -115 190 0 c206 0 235 -6 279 -53 16 -18 25 -42 28
-74 6 -65 -20 -111 -77 -140 -41 -21 -57 -23 -232 -23 l-188 0 0 -115 0 -115
211 0 c134 0 226 4 251 12 49 14 119 90 136 146 26 88 5 221 -52 320 l-25 42
30 0 29 0 0 115 0 115 -290 0 -290 0 0 -115z"/>
<path d="M44950 4675 l0 -85 -290 0 -290 0 0 -115 0 -115 288 -2 287 -3 3 -82
3 -83 29 0 30 0 0 85 0 85 40 0 40 0 0 115 0 115 -40 0 -40 0 0 85 0 85 -30 0
-30 0 0 -85z"/>
<path d="M44598 4197 c-125 -36 -211 -145 -239 -304 -20 -115 16 -259 87 -342
29 -35 100 -91 116 -91 4 0 8 56 8 125 l0 125 -49 0 c-42 0 -54 5 -79 30 -39
38 -47 78 -28 124 23 56 66 76 164 76 l82 0 0 -250 c0 -284 -8 -263 87 -235
103 31 198 151 224 283 52 268 -153 520 -373 459z m284 -297 c38 -38 40 -43
35 -87 -7 -67 -48 -103 -117 -103 l-50 0 0 115 0 115 46 0 c41 0 51 -5 86 -40z"/>
<path d="M44370 3195 l0 -115 196 0 c159 0 202 -3 230 -16 98 -47 98 -190 -1
-247 -12 -8 -96 -14 -220 -17 l-200 -5 0 -115 0 -115 215 0 c118 0 227 3 242
8 80 22 148 130 148 234 0 71 -39 206 -71 247 l-20 26 30 0 31 0 0 115 0 115
-290 0 -290 0 0 -115z"/>
<path d="M44512 2411 c-29 -10 -69 -34 -88 -52 -55 -53 -68 -90 -68 -204 -1
-90 2 -105 26 -152 26 -50 26 -53 8 -53 -19 0 -20 -7 -20 -115 l0 -115 425 0
425 0 0 115 0 115 -154 0 -155 0 27 58 c22 48 26 70 25 138 -2 141 -63 235
-174 268 -73 22 -210 20 -277 -3z m269 -241 c56 -16 84 -52 84 -110 0 -34 -6
-57 -21 -77 l-21 -28 -169 0 -168 0 -23 40 c-42 74 -25 132 51 166 46 21 204
26 267 9z"/>
<path d="M44553 1565 c-102 -52 -172 -156 -194 -291 -29 -178 64 -370 208
-431 55 -23 154 -19 210 8 218 106 272 448 100 636 -65 71 -114 95 -202 100
-61 4 -77 1 -122 -22z m323 -279 c28 -28 34 -42 34 -76 0 -50 -27 -92 -68
-109 -20 -9 -82 -11 -195 -9 l-166 3 -30 29 c-56 54 -50 139 13 177 27 17 52
19 205 19 l173 0 34 -34z"/>
<path d="M44978 872 c-43 -26 -63 -76 -49 -122 17 -57 53 -85 111 -85 54 0 84
20 106 72 19 44 8 88 -33 123 -39 35 -92 40 -135 12z m131 -33 c73 -73 6 -190
-95 -165 -112 28 -91 196 24 196 32 0 47 -7 71 -31z"/>
<path d="M44980 810 c0 -5 14 -10 30 -10 17 0 30 -4 30 -9 0 -5 -13 -19 -30
-31 -37 -26 -40 -47 -4 -23 24 16 27 16 36 0 9 -18 43 -23 52 -9 3 5 8 28 12
50 l7 42 -67 0 c-37 0 -66 -4 -66 -10z m108 -42 c-2 -21 -8 -33 -18 -33 -10 0
-16 12 -18 33 -3 27 0 32 18 32 18 0 21 -5 18 -32z"/>
<path d="M35500 7599 c-902 -62 -1712 -510 -2281 -1264 -330 -437 -588 -970
-769 -1590 -98 -335 -181 -757 -227 -1150 -25 -219 -25 -805 0 -995 78 -577
254 -1029 555 -1424 95 -125 305 -337 434 -439 550 -435 1319 -668 2036 -618
618 43 1186 249 1694 613 164 117 266 204 419 359 556 562 917 1307 1075 2218
87 507 107 1197 48 1661 -165 1301 -877 2209 -1974 2519 -322 91 -694 131
-1010 110z m333 -1593 c175 -34 357 -112 492 -213 309 -230 486 -576 557
-1088 16 -121 16 -552 0 -745 -57 -650 -243 -1204 -540 -1605 -75 -102 -246
-277 -339 -348 -297 -226 -694 -350 -1015 -317 -549 56 -933 415 -1058 989
-82 373 -65 920 45 1437 139 662 397 1179 758 1520 220 208 492 352 727 383
93 12 273 6 373 -13z"/>
<path d="M4809 7570 c-274 -15 -559 -49 -819 -96 -1140 -205 -2075 -661 -2761
-1344 -682 -680 -1097 -1594 -1195 -2635 -22 -238 -15 -629 14 -820 119 -765
507 -1409 1141 -1894 513 -393 1141 -650 1796 -736 154 -21 605 -34 805 -23
535 28 1218 194 1693 412 42 19 77 32 77 28 0 -4 -22 -75 -50 -157 -27 -82
-50 -155 -50 -162 0 -19 1725 -19 1733 0 3 6 190 494 417 1082 227 589 416
1078 421 1088 9 16 57 17 784 17 526 0 775 -3 775 -10 0 -6 61 -496 135 -1090
74 -594 135 -1084 135 -1090 0 -7 442 -9 1407 -8 l1406 3 642 1980 c352 1089
645 1993 651 2008 7 22 76 -389 328 -1975 175 -1102 320 -2006 323 -2011 2 -4
336 -7 743 -7 l738 0 15 37 c8 21 376 972 817 2113 442 1141 805 2078 809
2082 4 4 66 -927 139 -2070 73 -1142 136 -2096 139 -2120 l5 -42 819 0 819 0
0 28 c0 15 -77 1267 -170 2782 -94 1515 -195 3165 -226 3665 -30 501 -57 916
-59 923 -6 18 -1948 18 -1962 0 -6 -7 -352 -885 -769 -1951 -635 -1621 -760
-1934 -766 -1910 -5 15 -139 890 -299 1943 -159 1053 -294 1918 -298 1923 -4
4 -400 6 -880 5 l-873 -3 -1001 -3027 c-551 -1666 -1004 -3028 -1007 -3028 -3
0 -173 1356 -378 3013 -206 1656 -376 3020 -378 3030 -5 16 -66 17 -1098 17
l-1093 0 -174 -437 c-96 -241 -645 -1620 -1219 -3065 -575 -1445 -1046 -2624
-1047 -2620 -2 4 68 539 155 1190 l158 1182 -1485 -2 -1486 -3 -97 -690 c-53
-379 -99 -707 -102 -727 l-6 -38 650 0 c357 0 650 -4 650 -8 0 -9 -64 -366
-81 -448 -10 -51 -11 -52 -70 -78 -235 -106 -829 -161 -1148 -106 -661 113
-1143 489 -1326 1035 -124 369 -123 849 2 1240 219 681 751 1258 1510 1639
389 196 830 326 1293 382 181 22 641 30 835 15 317 -26 642 -84 951 -172 97
-28 178 -48 181 -45 10 10 253 1560 246 1567 -14 13 -208 67 -371 103 -192 43
-433 80 -652 101 -194 18 -749 27 -961 15z m4507 -3025 l90 -755 -378 0 -378
0 13 33 c7 17 135 357 283 754 148 398 271 723 274 723 3 0 46 -340 96 -755z"/>
<path d="M20756 7503 c-4 -21 -234 -1676 -511 -3678 -278 -2002 -508 -3652
-511 -3668 l-6 -27 2151 0 c1860 0 2151 2 2151 14 0 8 50 371 110 806 61 435
110 800 110 811 0 19 -22 19 -1300 19 l-1301 0 6 33 c5 31 155 1230 155 1241
0 3 508 6 1130 6 l1130 0 5 23 c3 12 52 366 110 787 58 421 108 780 111 798
l6 32 -1121 0 -1120 0 4 28 c6 33 155 1144 155 1155 0 4 586 7 1303 7 l1303 0
74 483 c40 265 97 633 125 817 29 184 50 338 48 343 -2 4 -973 7 -2158 7
l-2153 0 -6 -37z"/>
<path d="M27275 7530 c-3 -6 -235 -1661 -515 -3678 -280 -2017 -512 -3680
-515 -3695 l-5 -28 1758 4 c1574 3 1768 5 1867 20 375 57 613 129 885 267 674
344 1148 1020 1255 1790 22 157 31 528 15 661 -52 450 -237 830 -556 1140 -41
39 -74 74 -74 78 0 3 53 40 117 81 175 111 276 214 368 370 167 287 294 907
263 1290 -44 562 -372 1085 -894 1427 -186 122 -386 207 -598 256 -90 21 -111
21 -1728 24 -1145 3 -1638 1 -1643 -7z m2676 -1650 c185 -34 370 -206 429
-399 35 -113 20 -224 -52 -371 -34 -67 -60 -103 -128 -171 -71 -71 -101 -94
-180 -132 -114 -57 -210 -82 -361 -96 -110 -11 -1071 -16 -1080 -6 -3 2 21
195 52 427 31 233 67 498 79 591 l23 167 582 0 c343 0 604 -4 636 -10z m-66
-2830 c242 -34 467 -282 467 -515 0 -124 -78 -321 -177 -447 -86 -110 -243
-218 -380 -261 -137 -44 -194 -47 -932 -47 l-703 0 5 23 c2 12 43 294 90 627
47 333 88 611 90 618 5 15 1429 17 1540 2z"/>
<path d="M37650 7529 c0 -5 383 -837 851 -1847 544 -1172 851 -1847 850 -1864
-1 -16 -111 -840 -246 -1832 -135 -992 -245 -1815 -245 -1830 l0 -26 855 0
c728 0 855 2 855 14 0 33 431 3229 437 3240 3 6 604 941 1335 2078 730 1137
1328 2069 1328 2072 0 4 -426 5 -946 4 l-947 -3 -681 -1047 c-374 -576 -684
-1047 -687 -1047 -3 -1 -210 470 -461 1047 l-455 1047 -921 3 c-648 1 -922 -1
-922 -9z"/>
<path d="M41350 1304 c-103 -27 -180 -72 -260 -153 -122 -123 -171 -239 -171
-408 -1 -181 75 -339 216 -451 108 -85 219 -122 367 -122 163 0 277 48 398
170 144 144 197 323 155 525 -44 211 -218 391 -426 440 -80 18 -207 18 -279
-1z m267 -68 c181 -48 325 -196 368 -377 42 -181 -4 -341 -138 -473 -111 -110
-199 -145 -364 -146 -73 0 -106 5 -159 24 -205 75 -336 260 -336 476 -1 97 11
148 55 239 57 117 185 219 318 255 69 19 190 20 256 2z"/>
<path d="M41280 744 l0 -325 38 3 37 3 3 148 3 147 72 0 72 -1 80 -131 c106
-175 102 -170 153 -166 l42 3 -95 142 c-52 79 -95 144 -95 147 0 2 19 7 43 10
66 11 122 49 141 96 42 105 -7 211 -112 240 -20 5 -115 10 -209 10 l-173 0 0
-326z m370 248 c57 -28 76 -92 45 -151 -23 -46 -77 -61 -215 -61 l-120 0 0
115 0 115 128 0 c101 0 134 -4 162 -18z"/>
</g>
</svg>
